<mxfile host="Electron" modified="2023-05-23T15:22:09.657Z" agent="Mozilla/5.0 (Windows NT 10.0; Win64; x64) AppleWebKit/537.36 (KHTML, like Gecko) draw.io/21.2.8 Chrome/112.0.5615.165 Electron/24.2.0 Safari/537.36" etag="upaq5pAJ3dwEiDu2vDpk" version="21.2.8" type="device">
  <diagram id="YyVQvaLfGPp3lzWqMQDH" name="Pagina-1">
    <mxGraphModel dx="2963" dy="2549" grid="1" gridSize="10" guides="1" tooltips="1" connect="1" arrows="1" fold="1" page="0" pageScale="1" pageWidth="827" pageHeight="1169" background="none" math="0" shadow="0">
      <root>
        <mxCell id="0" />
        <mxCell id="1" parent="0" />
        <mxCell id="node14" value="&lt;p style=&quot;margin: 4px 0px 0px; text-align: center; line-height: 100%;&quot;&gt;&lt;b&gt;Adapter&lt;/b&gt;&lt;/p&gt;&lt;hr style=&quot;line-height: 100%;&quot; size=&quot;1&quot;&gt;&lt;p style=&quot;margin: 0px 0px 0px 4px; line-height: 100%;&quot;&gt;- tokenizer: Tokenizer&lt;/p&gt;&lt;hr style=&quot;line-height: 100%;&quot; size=&quot;1&quot;&gt;&lt;p style=&quot;margin: 0px 0px 0px 4px; line-height: 100%;&quot;&gt;getOrderedTokens(int): Set&amp;lt;Entry&amp;lt;Integer, List&amp;lt;String&amp;gt;&amp;gt;&amp;gt;&lt;/p&gt;" style="verticalAlign=top;align=left;overflow=fill;fontSize=14;fontFamily=Helvetica;html=1;rounded=0;shadow=0;comic=0;labelBackgroundColor=none;strokeWidth=1;" parent="1" vertex="1">
          <mxGeometry x="-361" y="-410" width="370" height="80" as="geometry" />
        </mxCell>
        <mxCell id="node44" value="&lt;p style=&quot;margin: 4px 0px 0px; text-align: center; line-height: 100%;&quot;&gt;&lt;b&gt;Deserializer&lt;/b&gt;&lt;/p&gt;&lt;hr style=&quot;line-height: 100%;&quot; size=&quot;1&quot;&gt;&lt;p style=&quot;margin: 0px 0px 0px 4px; line-height: 100%;&quot;&gt;-&amp;nbsp;&amp;nbsp;xStream: XStream&lt;/p&gt;&lt;hr style=&quot;line-height: 100%;&quot; size=&quot;1&quot;&gt;&lt;p style=&quot;margin: 0px 0px 0px 4px; line-height: 100%;&quot;&gt;&lt;/p&gt;+ deserialize(String): List&amp;lt;Article&amp;gt;" style="verticalAlign=top;align=left;overflow=fill;fontSize=14;fontFamily=Helvetica;html=1;rounded=0;shadow=0;comic=0;labelBackgroundColor=none;strokeWidth=1;" parent="1" vertex="1">
          <mxGeometry x="705" y="-640" width="215" height="90" as="geometry" />
        </mxCell>
        <mxCell id="node32" value="&lt;p style=&quot;margin: 4px 0px 0px; text-align: center; line-height: 100%;&quot;&gt;&lt;b&gt;Main&lt;/b&gt;&lt;/p&gt;&lt;hr style=&quot;line-height: 100%;&quot; size=&quot;1&quot;&gt;&lt;p style=&quot;margin: 0px 0px 0px 4px; line-height: 100%;&quot;&gt;+ Main(): &lt;/p&gt;&lt;hr style=&quot;line-height: 100%;&quot; size=&quot;1&quot;&gt;&lt;p style=&quot;margin: 0px 0px 0px 4px; line-height: 100%;&quot;&gt;+ main(String[]): void&lt;/p&gt;" style="verticalAlign=top;align=left;overflow=fill;fontSize=14;fontFamily=Helvetica;html=1;rounded=0;shadow=0;comic=0;labelBackgroundColor=none;strokeWidth=1;" parent="1" vertex="1">
          <mxGeometry x="1290" y="-718" width="152" height="248" as="geometry" />
        </mxCell>
        <mxCell id="node19" value="&lt;p style=&quot;margin: 4px 0px 0px; text-align: center; line-height: 100%;&quot;&gt;&lt;b&gt;Serializer&lt;/b&gt;&lt;/p&gt;&lt;hr style=&quot;line-height: 100%;&quot; size=&quot;1&quot;&gt;&lt;p style=&quot;margin: 0px 0px 0px 4px; line-height: 100%;&quot;&gt;~ xStream: XStream&lt;span style=&quot;background-color: initial;&quot;&gt;():&amp;nbsp;&lt;/span&gt;&lt;/p&gt;&lt;hr style=&quot;line-height: 100%;&quot; size=&quot;1&quot;&gt;&lt;p style=&quot;margin: 0px 0px 0px 4px; line-height: 100%;&quot;&gt;+ serialize(List&amp;lt;Article&amp;gt;, String): void&lt;br&gt;&lt;/p&gt;" style="verticalAlign=top;align=left;overflow=fill;fontSize=14;fontFamily=Helvetica;html=1;rounded=0;shadow=0;comic=0;labelBackgroundColor=none;strokeWidth=1;" parent="1" vertex="1">
          <mxGeometry x="920" y="-850" width="240" height="80" as="geometry" />
        </mxCell>
        <mxCell id="node17" value="&lt;p style=&quot;margin: 4px 0px 0px; text-align: center; line-height: 100%;&quot;&gt;&lt;b&gt;Tokenizer&lt;/b&gt;&lt;/p&gt;&lt;hr style=&quot;line-height: 100%;&quot; size=&quot;1&quot;&gt;&lt;p style=&quot;margin: 0px 0px 0px 4px; line-height: 100%;&quot;&gt;&lt;span style=&quot;background-color: initial;&quot;&gt;- str: String&lt;/span&gt;&lt;br&gt;&lt;/p&gt;&lt;p style=&quot;margin: 0px 0px 0px 4px; line-height: 100%;&quot;&gt;- properties: Properties&lt;/p&gt;&lt;p style=&quot;margin: 0px 0px 0px 4px; line-height: 100%;&quot;&gt;- document: CoreDocument&lt;/p&gt;&lt;p style=&quot;margin: 0px 0px 0px 4px; line-height: 100%;&quot;&gt;- tokens: TreeMap&amp;lt;String,Integer&amp;gt;&lt;/p&gt;&lt;p style=&quot;margin: 0px 0px 0px 4px; line-height: 100%;&quot;&gt;- pipeline: StanfordCoreNLP&lt;/p&gt;&lt;p style=&quot;margin: 0px 0px 0px 4px; line-height: 100%;&quot;&gt;- checkPunctuation: boolean&lt;/p&gt;&lt;hr style=&quot;line-height: 100%;&quot; size=&quot;1&quot;&gt;&lt;p style=&quot;margin: 0px 0px 0px 4px; line-height: 100%;&quot;&gt;addDocument(String): void&lt;br&gt;removeTokens(): void&lt;br&gt;printTokens(): void&lt;br&gt;enableCheck(): void&lt;br&gt;switchDocument(String): void&lt;br&gt;disableCheck(): void&lt;br&gt;- enterTokens(String): void&lt;br&gt;getOrderedTokens(int): Set&amp;lt;Entry&amp;lt;Integer, List&amp;lt;String&amp;gt;&amp;gt;&amp;gt;&lt;br&gt;printFrequency(String): void&lt;/p&gt;" style="verticalAlign=top;align=left;overflow=fill;fontSize=14;fontFamily=Helvetica;html=1;rounded=0;shadow=0;comic=0;labelBackgroundColor=none;strokeWidth=1;" parent="1" vertex="1">
          <mxGeometry x="-366" y="-860" width="375" height="270" as="geometry" />
        </mxCell>
        <mxCell id="node28" value="&lt;p style=&quot;margin: 4px 0px 0px; text-align: center; line-height: 100%;&quot;&gt;&lt;b&gt;htmlParser&lt;/b&gt;&lt;/p&gt;&lt;hr style=&quot;line-height: 100%;&quot; size=&quot;1&quot;&gt;&lt;p style=&quot;margin: 0px 0px 0px 4px; line-height: 100%;&quot;&gt;&lt;/p&gt;&lt;p style=&quot;margin: 0px 0px 0px 4px; line-height: 100%;&quot;&gt;&lt;br&gt;&lt;/p&gt;&lt;hr style=&quot;line-height: 100%;&quot; size=&quot;1&quot;&gt;&lt;p style=&quot;margin: 0px 0px 0px 4px; line-height: 100%;&quot;&gt;&lt;/p&gt;&lt;p style=&quot;margin: 0px 0px 0px 4px; line-height: 100%;&quot;&gt;&lt;/p&gt;&amp;nbsp;parse(Article): void" style="verticalAlign=top;align=left;overflow=fill;fontSize=14;fontFamily=Helvetica;html=1;rounded=0;shadow=0;comic=0;labelBackgroundColor=none;strokeWidth=1;" parent="1" vertex="1">
          <mxGeometry x="480" y="-630" width="140" height="90" as="geometry" />
        </mxCell>
        <mxCell id="node23" value="&lt;p style=&quot;margin: 4px 0px 0px; text-align: center; line-height: 100%;&quot;&gt;&lt;b&gt;httpGetter&lt;/b&gt;&lt;/p&gt;&lt;hr style=&quot;line-height: 100%;&quot; size=&quot;1&quot;&gt;&lt;p style=&quot;margin: 0px 0px 0px 4px; line-height: 100%;&quot;&gt;&lt;/p&gt;&lt;p style=&quot;margin: 0px 0px 0px 4px; line-height: 100%;&quot;&gt;- url: URL&lt;/p&gt;&lt;p style=&quot;margin: 0px 0px 0px 4px; line-height: 100%;&quot;&gt;- connection: HttpURLConnection&lt;br style=&quot;border-color: rgb(0, 0, 0); color: rgb(240, 240, 240); background-color: rgb(24, 20, 29);&quot;&gt;&lt;/p&gt;&lt;p style=&quot;margin: 0px 0px 0px 4px; line-height: 100%;&quot;&gt;- responseContent: StringBuffer&lt;br style=&quot;border-color: rgb(0, 0, 0); color: rgb(240, 240, 240); background-color: rgb(24, 20, 29);&quot;&gt;&lt;/p&gt;&lt;p style=&quot;margin: 0px 0px 0px 4px; line-height: 100%;&quot;&gt;- status: int&lt;br style=&quot;border-color: rgb(0, 0, 0); color: rgb(240, 240, 240); background-color: rgb(24, 20, 29);&quot;&gt;&lt;/p&gt;&lt;p style=&quot;margin: 0px 0px 0px 4px; line-height: 100%;&quot;&gt;- message: String&lt;br&gt;&lt;/p&gt;&lt;p style=&quot;margin: 0px 0px 0px 4px; line-height: 100%;&quot;&gt;- connected: boolean&lt;br style=&quot;border-color: rgb(0, 0, 0); color: rgb(240, 240, 240); background-color: rgb(24, 20, 29);&quot;&gt;&lt;/p&gt;&lt;hr style=&quot;line-height: 100%;&quot; size=&quot;1&quot;&gt;&lt;p style=&quot;margin: 0px 0px 0px 4px; line-height: 100%;&quot;&gt;&lt;/p&gt;&lt;p style=&quot;margin: 0px 0px 0px 4px; line-height: 100%;&quot;&gt;setUrl(URL): void&lt;br style=&quot;border-color: rgb(0, 0, 0); color: rgb(240, 240, 240); background-color: rgb(24, 20, 29);&quot;&gt;&lt;/p&gt;&lt;p style=&quot;margin: 0px 0px 0px 4px; line-height: 100%;&quot;&gt;getHttpString(): String&lt;br&gt;&lt;/p&gt;&lt;p style=&quot;margin: 0px 0px 0px 4px; line-height: 100%;&quot;&gt;closeConnection(): void&lt;br&gt;&lt;/p&gt;" style="verticalAlign=top;align=left;overflow=fill;fontSize=14;fontFamily=Helvetica;html=1;rounded=0;shadow=0;comic=0;labelBackgroundColor=none;strokeWidth=1;" parent="1" vertex="1">
          <mxGeometry x="500" y="-860" width="220" height="180" as="geometry" />
        </mxCell>
        <mxCell id="node4" value="&lt;p style=&quot;margin:0px;margin-top:4px;text-align:center;&quot;&gt;&lt;b&gt;impossibleConnection&lt;/b&gt;&lt;/p&gt;&lt;hr size=&quot;1&quot;&gt;&lt;p style=&quot;margin:0 0 0 4px;line-height:1.6;&quot;&gt;&lt;br&gt;&lt;/p&gt;" style="verticalAlign=top;align=left;overflow=fill;fontSize=14;fontFamily=Helvetica;html=1;rounded=0;shadow=0;comic=0;labelBackgroundColor=none;strokeWidth=1;" parent="1" vertex="1">
          <mxGeometry x="980" y="-634" width="194" height="58" as="geometry" />
        </mxCell>
        <mxCell id="node11" value="&lt;blockquote style=&quot;text-align: center; margin: 4px 0px 0px; line-height: 100%;&quot;&gt;&lt;b&gt;jsonParser&lt;/b&gt;&lt;/blockquote&gt;&lt;hr style=&quot;line-height: 100%;&quot; size=&quot;1&quot;&gt;&lt;p style=&quot;margin: 0px 0px 0px 4px; line-height: 100%;&quot;&gt;- jsonString: String&lt;br style=&quot;border-color: var(--border-color);&quot;&gt;&lt;/p&gt;&lt;p style=&quot;margin: 0px 0px 0px 4px; line-height: 100%;&quot;&gt;- status: String&lt;br style=&quot;border-color: var(--border-color);&quot;&gt;&lt;/p&gt;&lt;p style=&quot;margin: 0px 0px 0px 4px; line-height: 100%;&quot;&gt;- userTier: String&lt;/p&gt;&lt;p style=&quot;margin: 0px 0px 0px 4px; line-height: 100%;&quot;&gt;- total: int&lt;/p&gt;&lt;p style=&quot;margin: 0px 0px 0px 4px; line-height: 100%;&quot;&gt;- startIndex: int&lt;/p&gt;&lt;p style=&quot;margin: 0px 0px 0px 4px; line-height: 100%;&quot;&gt;- pageSize: int&lt;/p&gt;&lt;p style=&quot;margin: 0px 0px 0px 4px; line-height: 100%;&quot;&gt;- currentPage: int&lt;/p&gt;&lt;p style=&quot;margin: 0px 0px 0px 4px; line-height: 100%;&quot;&gt;- pages: int&lt;br style=&quot;border-color: var(--border-color);&quot;&gt;- orderBy: String&lt;br&gt;- articles: List&amp;lt;Article&amp;gt;&lt;/p&gt;&lt;hr style=&quot;line-height: 100%;&quot; size=&quot;1&quot;&gt;&amp;nbsp;getJsonString()&lt;br&gt;&amp;nbsp;getStatus()&lt;br&gt;&amp;nbsp;getTotal()&lt;br&gt;&amp;nbsp;getStartIndex()&lt;br&gt;&amp;nbsp;getPageSize()&lt;br&gt;&amp;nbsp;getUserTier()&lt;br&gt;&amp;nbsp;getCurrentPage()&lt;br&gt;&amp;nbsp;getOrderBy()&lt;br&gt;&amp;nbsp;getPages()&lt;br&gt;&amp;nbsp;setPages()&lt;br&gt;&amp;nbsp;setCurrentPage()&lt;br&gt;&amp;nbsp;setJsonString()&lt;br&gt;&amp;nbsp;setPageSize()&lt;br&gt;&amp;nbsp;setStatus()&lt;br&gt;&amp;nbsp;setStartIndex()&lt;br&gt;&amp;nbsp;setTotal()&lt;br&gt;&amp;nbsp;setOrderBy()&lt;br&gt;&amp;nbsp;setArticles()&lt;br&gt;&lt;div style=&quot;line-height: 100%;&quot;&gt;&lt;div style=&quot;line-height: 100%;&quot;&gt;&lt;div style=&quot;line-height: 100%;&quot;&gt;&lt;div style=&quot;line-height: 100%;&quot;&gt;&lt;div style=&quot;line-height: 100%;&quot;&gt;&lt;div style=&quot;line-height: 100%;&quot;&gt;&lt;div style=&quot;line-height: 100%;&quot;&gt;&lt;div style=&quot;line-height: 100%;&quot;&gt;&lt;span style=&quot;background-color: rgb(255, 255, 255);&quot;&gt;&amp;nbsp;setUserTier()&lt;/span&gt;&lt;/div&gt;&lt;div style=&quot;line-height: 100%;&quot;&gt;&lt;span style=&quot;background-color: rgb(255, 255, 255);&quot;&gt;&lt;br&gt;&lt;/span&gt;&lt;/div&gt;&lt;div style=&quot;line-height: 100%;&quot;&gt;&lt;span style=&quot;background-color: rgb(255, 255, 255);&quot;&gt;&lt;br&gt;&lt;/span&gt;&lt;/div&gt;&lt;div style=&quot;line-height: 100%;&quot;&gt;&lt;span style=&quot;background-color: rgb(255, 255, 255);&quot;&gt;&lt;br&gt;&lt;/span&gt;&lt;/div&gt;&lt;/div&gt;&lt;/div&gt;&lt;/div&gt;&lt;/div&gt;&lt;/div&gt;&lt;/div&gt;&lt;/div&gt;" style="verticalAlign=top;align=left;overflow=fill;fontSize=14;fontFamily=Helvetica;html=1;rounded=0;shadow=0;comic=0;labelBackgroundColor=none;strokeWidth=1;textOpacity=90;" parent="1" vertex="1">
          <mxGeometry x="-590" y="-860" width="147" height="510" as="geometry" />
        </mxCell>
        <mxCell id="node46" value="&lt;p style=&quot;margin: 4px 0px 0px; text-align: center; line-height: 100%;&quot;&gt;&lt;b&gt;urlSetter&lt;/b&gt;&lt;/p&gt;&lt;hr style=&quot;line-height: 100%;&quot; size=&quot;1&quot;&gt;&lt;p style=&quot;margin: 0px 0px 0px 4px; line-height: 100%;&quot;&gt;&lt;/p&gt;&lt;p style=&quot;margin: 0px 0px 0px 4px; line-height: 100%;&quot;&gt;- url: String&lt;/p&gt;&lt;hr style=&quot;line-height: 100%;&quot; size=&quot;1&quot;&gt;&lt;p style=&quot;margin: 0px 0px 0px 4px; line-height: 100%;&quot;&gt;getUrl(): String&lt;br&gt;&lt;/p&gt;&lt;p style=&quot;margin: 0px 0px 0px 4px; line-height: 100%;&quot;&gt;&lt;br&gt;&lt;/p&gt;" style="verticalAlign=top;align=left;overflow=fill;fontSize=14;fontFamily=Helvetica;html=1;rounded=0;shadow=0;comic=0;labelBackgroundColor=none;strokeWidth=1;" parent="1" vertex="1">
          <mxGeometry x="780" y="-850" width="110" height="80" as="geometry" />
        </mxCell>
        <mxCell id="edge0" value="" style="html=1;rounded=1;edgeStyle=orthogonalEdgeStyle;dashed=0;startArrow=diamondThinstartSize=12;endArrow=openThin;endSize=12;strokeColor=#595959;exitX=0.500;exitY=0.001;exitDx=0;exitDy=0;entryX=0.500;entryY=1.000;entryDx=0;entryDy=0;" parent="1" source="node14" edge="1">
          <mxGeometry width="50" height="50" relative="1" as="geometry">
            <Array as="points" />
            <mxPoint x="-191.00000000000023" y="-590" as="targetPoint" />
          </mxGeometry>
        </mxCell>
        <mxCell id="label0" value="1" style="edgeLabel;resizable=0;html=1;align=left;verticalAlign=top;strokeColor=default;" parent="edge0" vertex="1" connectable="0">
          <mxGeometry x="-170" y="-450" as="geometry" />
        </mxCell>
        <mxCell id="label4" value="1" style="edgeLabel;resizable=0;html=1;align=left;verticalAlign=top;strokeColor=default;" parent="edge0" vertex="1" connectable="0">
          <mxGeometry x="-170" y="-470" as="geometry" />
        </mxCell>
        <mxCell id="label5" value="tokenizer" style="edgeLabel;resizable=0;html=1;align=left;verticalAlign=top;strokeColor=default;" parent="edge0" vertex="1" connectable="0">
          <mxGeometry x="-159" y="-470" as="geometry" />
        </mxCell>
        <mxCell id="J0C2nTutI7TL9ua-cK5j-3" value="&lt;p style=&quot;margin: 4px 0px 0px; text-align: center; line-height: 100%;&quot;&gt;&lt;b&gt;Article&lt;/b&gt;&lt;/p&gt;&lt;hr style=&quot;line-height: 100%;&quot; size=&quot;1&quot;&gt;&lt;p style=&quot;margin: 0px 0px 0px 4px; line-height: 100%;&quot;&gt;&lt;/p&gt;&lt;p style=&quot;margin: 0px 0px 0px 4px; line-height: 100%;&quot;&gt;- Id: String&lt;br&gt;&lt;/p&gt;&lt;p style=&quot;margin: 0px 0px 0px 4px; line-height: 100%;&quot;&gt;- type: String&lt;br&gt;&lt;/p&gt;&lt;p style=&quot;margin: 0px 0px 0px 4px; line-height: 100%;&quot;&gt;- sectionId: String&lt;br&gt;&lt;/p&gt;&lt;p style=&quot;margin: 0px 0px 0px 4px; line-height: 100%;&quot;&gt;- sectionName: String&lt;br&gt;&lt;/p&gt;&lt;p style=&quot;margin: 0px 0px 0px 4px; line-height: 100%;&quot;&gt;- webPublicationDate: String&lt;br&gt;&lt;/p&gt;&lt;p style=&quot;margin: 0px 0px 0px 4px; line-height: 100%;&quot;&gt;- webTitle: String&lt;/p&gt;&lt;p style=&quot;margin: 0px 0px 0px 4px; line-height: 100%;&quot;&gt;- webUrl: URL&lt;/p&gt;&lt;p style=&quot;margin: 0px 0px 0px 4px; line-height: 100%;&quot;&gt;- apiUrl: URL&lt;/p&gt;&lt;div style=&quot;line-height: 100%;&quot;&gt;&amp;nbsp;- isHosted: boolean&lt;/div&gt;&lt;div style=&quot;line-height: 100%;&quot;&gt;&amp;nbsp;- pillarId: String&lt;/div&gt;&lt;div style=&quot;line-height: 100%;&quot;&gt;&amp;nbsp;- pillarName: String&lt;br style=&quot;border-color: var(--border-color);&quot;&gt;&lt;/div&gt;&lt;div style=&quot;line-height: 100%;&quot;&gt;&amp;nbsp;- head: String&lt;br style=&quot;border-color: var(--border-color);&quot;&gt;&amp;nbsp;- body: String&lt;br&gt;&amp;nbsp;- wordcount: String&lt;br style=&quot;border-color: var(--border-color);&quot;&gt;&amp;nbsp;- mediaGroup: String&lt;br&gt;&lt;/div&gt;&lt;hr style=&quot;line-height: 100%;&quot; size=&quot;1&quot;&gt;&lt;p style=&quot;margin: 0px 0px 0px 4px; line-height: 100%;&quot;&gt;setId(String): void&lt;br style=&quot;border-color: rgb(0, 0, 0);&quot;&gt;&lt;/p&gt;&lt;p style=&quot;margin: 0px 0px 0px 4px; line-height: 100%;&quot;&gt;setType(String): void&lt;br style=&quot;border-color: rgb(0, 0, 0);&quot;&gt;&lt;/p&gt;&lt;p style=&quot;margin: 0px 0px 0px 4px; line-height: 100%;&quot;&gt;setSectionId(String): void&lt;br style=&quot;border-color: rgb(0, 0, 0);&quot;&gt;&lt;/p&gt;&lt;p style=&quot;margin: 0px 0px 0px 4px; line-height: 100%;&quot;&gt;setSectionName(String): void&lt;br&gt;&lt;/p&gt;&lt;p style=&quot;margin: 0px 0px 0px 4px; line-height: 100%;&quot;&gt;setWebPublicationDate(String): void&lt;br style=&quot;border-color: rgb(0, 0, 0);&quot;&gt;&lt;/p&gt;&lt;p style=&quot;margin: 0px 0px 0px 4px; line-height: 100%;&quot;&gt;setWebTitle(String): void&lt;br style=&quot;border-color: rgb(0, 0, 0);&quot;&gt;&lt;/p&gt;&lt;p style=&quot;margin: 0px 0px 0px 4px; line-height: 100%;&quot;&gt;setHosted(String): void&lt;br style=&quot;border-color: rgb(0, 0, 0);&quot;&gt;&lt;/p&gt;&lt;p style=&quot;margin: 0px 0px 0px 4px; line-height: 100%;&quot;&gt;setWebUrl(String): void&lt;/p&gt;&lt;p style=&quot;margin: 0px 0px 0px 4px; line-height: 100%;&quot;&gt;setApiUrl(String): void&lt;br&gt;&lt;/p&gt;&lt;p style=&quot;margin: 0px 0px 0px 4px; line-height: 100%;&quot;&gt;setPillarId(String): void&lt;br style=&quot;border-color: rgb(0, 0, 0);&quot;&gt;&lt;/p&gt;&lt;p style=&quot;margin: 0px 0px 0px 4px; line-height: 100%;&quot;&gt;setPillarName(String): void&lt;br style=&quot;border-color: rgb(0, 0, 0);&quot;&gt;&lt;/p&gt;&lt;p style=&quot;margin: 0px 0px 0px 4px; line-height: 100%;&quot;&gt;setWordcount(String): void&lt;/p&gt;&lt;p style=&quot;margin: 0px 0px 0px 4px; line-height: 100%;&quot;&gt;setMediaGroup(String): void&lt;/p&gt;&lt;p style=&quot;margin: 0px 0px 0px 4px; line-height: 100%;&quot;&gt;setHead(String): void&lt;br style=&quot;border-color: rgb(0, 0, 0);&quot;&gt;setBody(String): void&lt;br style=&quot;border-color: rgb(0, 0, 0);&quot;&gt;&lt;/p&gt;&lt;p style=&quot;margin: 0px 0px 0px 4px; line-height: 100%;&quot;&gt;getId(): String&lt;br style=&quot;border-color: rgb(0, 0, 0);&quot;&gt;&lt;/p&gt;&lt;p style=&quot;margin: 0px 0px 0px 4px; line-height: 100%;&quot;&gt;getType(): String&lt;/p&gt;&lt;p style=&quot;margin: 0px 0px 0px 4px; line-height: 100%;&quot;&gt;getWebUrl(): URL&lt;/p&gt;&lt;p style=&quot;margin: 0px 0px 0px 4px; line-height: 100%;&quot;&gt;getApiUrl(): URL&lt;br style=&quot;border-color: rgb(0, 0, 0);&quot;&gt;getSectionId(): String&lt;br style=&quot;border-color: rgb(0, 0, 0);&quot;&gt;&lt;/p&gt;&lt;p style=&quot;margin: 0px 0px 0px 4px; line-height: 100%;&quot;&gt;getSectionName(): String&lt;br style=&quot;border-color: rgb(0, 0, 0);&quot;&gt;&lt;/p&gt;&lt;p style=&quot;margin: 0px 0px 0px 4px; line-height: 100%;&quot;&gt;getWebPublicationDate(): String&lt;br style=&quot;border-color: rgb(0, 0, 0);&quot;&gt;&lt;/p&gt;&lt;p style=&quot;margin: 0px 0px 0px 4px; line-height: 100%;&quot;&gt;getWebTitle(): String&lt;/p&gt;&lt;p style=&quot;margin: 0px 0px 0px 4px; line-height: 100%;&quot;&gt;getHosted(): boolean&lt;/p&gt;&lt;p style=&quot;margin: 0px 0px 0px 4px; line-height: 100%;&quot;&gt;getPillarId(): String&lt;br style=&quot;border-color: rgb(0, 0, 0);&quot;&gt;getPillarName(): String&lt;/p&gt;&lt;p style=&quot;margin: 0px 0px 0px 4px; line-height: 100%;&quot;&gt;getHead(): String&lt;br style=&quot;border-color: rgb(0, 0, 0);&quot;&gt;getMediaGroup(): String&lt;br style=&quot;border-color: rgb(0, 0, 0);&quot;&gt;&lt;/p&gt;&lt;p style=&quot;margin: 0px 0px 0px 4px; line-height: 100%;&quot;&gt;getBody(): String&lt;br style=&quot;border-color: rgb(0, 0, 0);&quot;&gt;getWordcount(): String&lt;br style=&quot;border-color: rgb(0, 0, 0);&quot;&gt;printArticle(): void&lt;br style=&quot;border-color: rgb(0, 0, 0);&quot;&gt;&lt;/p&gt;" style="verticalAlign=top;align=left;overflow=fill;fontSize=14;fontFamily=Helvetica;html=1;rounded=0;shadow=0;comic=0;labelBackgroundColor=none;strokeWidth=1;movable=1;resizable=1;rotatable=1;deletable=1;editable=1;locked=0;connectable=1;" vertex="1" parent="1">
          <mxGeometry x="99" y="-860" width="261" height="700" as="geometry" />
        </mxCell>
        <mxCell id="J0C2nTutI7TL9ua-cK5j-4" value="&lt;p style=&quot;margin: 4px 0px 0px; text-align: center; line-height: 100%;&quot;&gt;&lt;b&gt;csvParser&lt;/b&gt;&lt;/p&gt;&lt;hr style=&quot;line-height: 100%;&quot; size=&quot;1&quot;&gt;&lt;p style=&quot;margin: 0px 0px 0px 4px; line-height: 100%;&quot;&gt;&lt;/p&gt;&lt;p style=&quot;margin: 0px 0px 0px 4px; line-height: 100%;&quot;&gt;~ articles: List&amp;lt;Article&amp;gt;&lt;/p&gt;&lt;hr style=&quot;line-height: 100%;&quot; size=&quot;1&quot;&gt;&lt;p style=&quot;margin: 0px 0px 0px 4px; line-height: 100%;&quot;&gt;getArticles(): List&amp;lt;Article&amp;gt;&lt;br&gt;&lt;/p&gt;" style="verticalAlign=top;align=left;overflow=fill;fontSize=14;fontFamily=Helvetica;html=1;rounded=0;shadow=0;comic=0;labelBackgroundColor=none;strokeWidth=1;movable=1;resizable=1;rotatable=1;deletable=1;editable=1;locked=0;connectable=1;" vertex="1" parent="1">
          <mxGeometry x="20" y="208" width="170" height="82" as="geometry" />
        </mxCell>
        <mxCell id="J0C2nTutI7TL9ua-cK5j-5" value="&lt;p style=&quot;margin: 4px 0px 0px; text-align: center; line-height: 100%;&quot;&gt;&lt;b&gt;jsonParser&lt;/b&gt;&lt;/p&gt;&lt;hr style=&quot;line-height: 100%;&quot; size=&quot;1&quot;&gt;&lt;p style=&quot;margin: 0px 0px 0px 4px; line-height: 100%;&quot;&gt;&lt;/p&gt;&lt;p style=&quot;margin: 0px 0px 0px 4px; line-height: 100%;&quot;&gt;- jsonString: String&lt;br&gt;&lt;/p&gt;&lt;div style=&quot;line-height: 100%;&quot;&gt;&amp;nbsp;- status: String&lt;br style=&quot;border-color: var(--border-color);&quot;&gt;&lt;/div&gt;&lt;div style=&quot;line-height: 100%;&quot;&gt;&amp;nbsp;- userTier: String&lt;br style=&quot;border-color: var(--border-color);&quot;&gt;&lt;/div&gt;&lt;div style=&quot;line-height: 100%;&quot;&gt;&amp;nbsp;- total: int&lt;br&gt;&lt;/div&gt;&lt;div style=&quot;line-height: 100%;&quot;&gt;&amp;nbsp;- startIndex: int&lt;/div&gt;&lt;p style=&quot;margin: 0px 0px 0px 4px; line-height: 100%;&quot;&gt;- pageSize: int&lt;/p&gt;&lt;p style=&quot;margin: 0px 0px 0px 4px; line-height: 100%;&quot;&gt;- currentPage: int&lt;br&gt;- pages: int&lt;/p&gt;&lt;p style=&quot;margin: 0px 0px 0px 4px; line-height: 100%;&quot;&gt;- orderBy: String&lt;br&gt;&lt;/p&gt;&amp;nbsp;- articles: List&amp;lt;Article&amp;gt;&lt;br style=&quot;border-color: var(--border-color);&quot;&gt;&lt;hr style=&quot;line-height: 100%;&quot; size=&quot;1&quot;&gt;&lt;p style=&quot;margin: 0px 0px 0px 4px; line-height: 100%;&quot;&gt;getArticles(): List&amp;lt;Article&amp;gt;&lt;br style=&quot;border-color: rgb(0, 0, 0);&quot;&gt;&lt;/p&gt;&lt;p style=&quot;margin: 0px 0px 0px 4px; line-height: 100%;&quot;&gt;getJsonString(): String&lt;br style=&quot;border-color: rgb(0, 0, 0);&quot;&gt;&lt;/p&gt;&lt;p style=&quot;margin: 0px 0px 0px 4px; line-height: 100%;&quot;&gt;getStatus(): String&lt;br style=&quot;border-color: rgb(0, 0, 0);&quot;&gt;&lt;/p&gt;&lt;p style=&quot;margin: 0px 0px 0px 4px; line-height: 100%;&quot;&gt;getTotal(): int&lt;br style=&quot;border-color: rgb(0, 0, 0);&quot;&gt;&lt;/p&gt;&lt;p style=&quot;margin: 0px 0px 0px 4px; line-height: 100%;&quot;&gt;getStartIndex(): int&lt;br style=&quot;border-color: rgb(0, 0, 0);&quot;&gt;&lt;/p&gt;&lt;p style=&quot;margin: 0px 0px 0px 4px; line-height: 100%;&quot;&gt;getPageSize(): int&lt;br style=&quot;border-color: rgb(0, 0, 0);&quot;&gt;&lt;/p&gt;&lt;p style=&quot;margin: 0px 0px 0px 4px; line-height: 100%;&quot;&gt;getUserTier(): String&lt;br style=&quot;border-color: rgb(0, 0, 0);&quot;&gt;&lt;/p&gt;&lt;p style=&quot;margin: 0px 0px 0px 4px; line-height: 100%;&quot;&gt;getCurrentPage(): int&lt;br style=&quot;border-color: rgb(0, 0, 0);&quot;&gt;&lt;/p&gt;&lt;p style=&quot;margin: 0px 0px 0px 4px; line-height: 100%;&quot;&gt;getOrderBy(): String&lt;br style=&quot;border-color: rgb(0, 0, 0);&quot;&gt;&lt;/p&gt;&lt;p style=&quot;margin: 0px 0px 0px 4px; line-height: 100%;&quot;&gt;getPages(): int&lt;br style=&quot;border-color: rgb(0, 0, 0);&quot;&gt;&lt;/p&gt;&lt;p style=&quot;margin: 0px 0px 0px 4px; line-height: 100%;&quot;&gt;setPages(int): void&lt;br style=&quot;border-color: rgb(0, 0, 0);&quot;&gt;&lt;/p&gt;&lt;p style=&quot;margin: 0px 0px 0px 4px; line-height: 100%;&quot;&gt;setCurrentPage(int): void&lt;br style=&quot;border-color: rgb(0, 0, 0);&quot;&gt;&lt;/p&gt;&lt;p style=&quot;margin: 0px 0px 0px 4px; line-height: 100%;&quot;&gt;setJsonString(String): void&lt;br style=&quot;border-color: rgb(0, 0, 0);&quot;&gt;&lt;/p&gt;&lt;p style=&quot;margin: 0px 0px 0px 4px; line-height: 100%;&quot;&gt;setPageSize(int): void&lt;br&gt;&lt;/p&gt;&lt;p style=&quot;margin: 0px 0px 0px 4px; line-height: 100%;&quot;&gt;setStatus(String): void&lt;/p&gt;&lt;p style=&quot;margin: 0px 0px 0px 4px; line-height: 100%;&quot;&gt;setStartIndex(int): void&lt;/p&gt;&lt;p style=&quot;margin: 0px 0px 0px 4px; line-height: 100%;&quot;&gt;setTotal(int): void&lt;br style=&quot;border-color: rgb(0, 0, 0);&quot;&gt;setOrderBy(String): void&lt;br style=&quot;border-color: rgb(0, 0, 0);&quot;&gt;&lt;/p&gt;&lt;p style=&quot;margin: 0px 0px 0px 4px; line-height: 100%;&quot;&gt;setArticles(ArrayList&amp;lt;Article&amp;gt;): void&lt;br style=&quot;border-color: rgb(0, 0, 0);&quot;&gt;setUserTier(String): void&lt;br style=&quot;border-color: rgb(0, 0, 0);&quot;&gt;&lt;br&gt;&lt;/p&gt;" style="verticalAlign=top;align=left;overflow=fill;fontSize=14;fontFamily=Helvetica;html=1;rounded=0;shadow=0;comic=0;labelBackgroundColor=none;strokeWidth=1;movable=1;resizable=1;rotatable=1;deletable=1;editable=1;locked=0;connectable=1;" vertex="1" parent="1">
          <mxGeometry x="210" y="20" width="234" height="480" as="geometry" />
        </mxCell>
        <mxCell id="J0C2nTutI7TL9ua-cK5j-6" value="" style="html=1;rounded=1;edgeStyle=orthogonalEdgeStyle;dashed=0;startArrow=diamondThinstartSize=12;endArrow=openThin;endSize=12;strokeColor=#595959;exitX=0.500;exitY=0.000;exitDx=0;exitDy=0;entryX=0.500;entryY=1.000;entryDx=0;entryDy=0;movable=1;resizable=1;rotatable=1;deletable=1;editable=1;locked=0;connectable=1;" edge="1" parent="1" source="J0C2nTutI7TL9ua-cK5j-4" target="J0C2nTutI7TL9ua-cK5j-3">
          <mxGeometry width="50" height="943" relative="1" as="geometry">
            <Array as="points">
              <mxPoint x="105" y="208" />
              <mxPoint x="105" y="-40" />
              <mxPoint x="230" y="-40" />
              <mxPoint x="230" y="-140" />
              <mxPoint x="230" y="-140" />
            </Array>
          </mxGeometry>
        </mxCell>
        <mxCell id="J0C2nTutI7TL9ua-cK5j-7" value="1" style="edgeLabel;resizable=1;html=1;align=left;verticalAlign=top;strokeColor=default;movable=1;rotatable=1;deletable=1;editable=1;locked=0;connectable=1;" vertex="1" connectable="0" parent="J0C2nTutI7TL9ua-cK5j-6">
          <mxGeometry x="83" y="178" width="49" as="geometry" />
        </mxCell>
        <mxCell id="J0C2nTutI7TL9ua-cK5j-14" value="" style="group" vertex="1" connectable="0" parent="J0C2nTutI7TL9ua-cK5j-6">
          <mxGeometry x="70" y="-50" width="29" height="32" as="geometry" />
        </mxCell>
        <mxCell id="J0C2nTutI7TL9ua-cK5j-8" value="*" style="edgeLabel;resizable=1;html=1;align=left;verticalAlign=top;strokeColor=default;movable=1;rotatable=1;deletable=1;editable=1;locked=0;connectable=1;" vertex="1" connectable="0" parent="J0C2nTutI7TL9ua-cK5j-14">
          <mxGeometry x="29" as="geometry" />
        </mxCell>
        <mxCell id="J0C2nTutI7TL9ua-cK5j-9" value="articles" style="edgeLabel;resizable=1;html=1;align=left;verticalAlign=top;strokeColor=default;movable=1;rotatable=1;deletable=1;editable=1;locked=0;connectable=1;" vertex="1" connectable="0" parent="J0C2nTutI7TL9ua-cK5j-14">
          <mxGeometry x="-7" y="110" as="geometry" />
        </mxCell>
        <mxCell id="J0C2nTutI7TL9ua-cK5j-10" value="" style="html=1;rounded=1;edgeStyle=orthogonalEdgeStyle;dashed=0;startArrow=diamondThinstartSize=12;endArrow=openThin;endSize=12;strokeColor=#595959;exitX=0.500;exitY=0.000;exitDx=0;exitDy=0;entryX=0.500;entryY=1.000;entryDx=0;entryDy=0;movable=1;resizable=1;rotatable=1;deletable=1;editable=1;locked=0;connectable=1;" edge="1" parent="1" source="J0C2nTutI7TL9ua-cK5j-5" target="J0C2nTutI7TL9ua-cK5j-3">
          <mxGeometry width="158" height="752" relative="1" as="geometry">
            <Array as="points">
              <mxPoint x="281" y="10" />
              <mxPoint x="281" y="-40" />
              <mxPoint x="230" y="-40" />
              <mxPoint x="230" y="-140" />
              <mxPoint x="230" y="-140" />
            </Array>
          </mxGeometry>
        </mxCell>
        <mxCell id="J0C2nTutI7TL9ua-cK5j-15" value="" style="group" vertex="1" connectable="0" parent="J0C2nTutI7TL9ua-cK5j-10">
          <mxGeometry x="280" y="-60" width="15" height="20" as="geometry" />
        </mxCell>
        <mxCell id="J0C2nTutI7TL9ua-cK5j-11" value="1" style="edgeLabel;resizable=1;html=1;align=left;verticalAlign=top;strokeColor=default;movable=1;rotatable=1;deletable=1;editable=1;locked=0;connectable=1;" vertex="1" connectable="0" parent="J0C2nTutI7TL9ua-cK5j-15">
          <mxGeometry x="4" y="20" as="geometry" />
        </mxCell>
        <mxCell id="J0C2nTutI7TL9ua-cK5j-12" value="*" style="edgeLabel;resizable=1;html=1;align=left;verticalAlign=top;strokeColor=default;movable=1;rotatable=1;deletable=1;editable=1;locked=0;connectable=1;" vertex="1" connectable="0" parent="J0C2nTutI7TL9ua-cK5j-15">
          <mxGeometry as="geometry" />
        </mxCell>
        <mxCell id="J0C2nTutI7TL9ua-cK5j-13" value="articles" style="edgeLabel;resizable=1;html=1;align=left;verticalAlign=top;strokeColor=default;movable=1;rotatable=1;deletable=1;editable=1;locked=0;connectable=1;" vertex="1" connectable="0" parent="J0C2nTutI7TL9ua-cK5j-15">
          <mxGeometry x="15" y="10" as="geometry" />
        </mxCell>
      </root>
    </mxGraphModel>
  </diagram>
</mxfile>
